<?xml version="1.0" encoding="UTF-8" standalone="no"?>
<!-- Generator: Adobe Illustrator 13.0.0, SVG Export Plug-In . SVG Version: 6.00 Build 14948)  -->

<svg
   xmlns:dc="http://purl.org/dc/elements/1.1/"
   xmlns:cc="http://creativecommons.org/ns#"
   xmlns:rdf="http://www.w3.org/1999/02/22-rdf-syntax-ns#"
   xmlns:svg="http://www.w3.org/2000/svg"
   xmlns="http://www.w3.org/2000/svg"
   xmlns:sodipodi="http://sodipodi.sourceforge.net/DTD/sodipodi-0.dtd"
   xmlns:inkscape="http://www.inkscape.org/namespaces/inkscape"
   version="1.1"
   id="Layer_1"
   x="0px"
   y="0px"
   width="40"
   height="31"
   viewBox="0 0 40.000001 30.999999"
   enable-background="new 0 0 447.667 293.333"
   xml:space="preserve"
   sodipodi:version="0.32"
   inkscape:version="0.48.4 r9939"
   sodipodi:docname="tangara.svg"
   inkscape:output_extension="org.inkscape.output.svg.inkscape"
   inkscape:export-filename="C:\wamp\www\tangara-interface-html\img\tangara.png"
   inkscape:export-xdpi="90"
   inkscape:export-ydpi="90"><metadata
   id="metadata36"><rdf:RDF><cc:Work
       rdf:about=""><dc:format>image/svg+xml</dc:format><dc:type
         rdf:resource="http://purl.org/dc/dcmitype/StillImage" /><dc:title></dc:title></cc:Work></rdf:RDF></metadata><defs
   id="defs34"><inkscape:perspective
   sodipodi:type="inkscape:persp3d"
   inkscape:vp_x="0 : 146.6665 : 1"
   inkscape:vp_y="0 : 1000 : 0"
   inkscape:vp_z="447.66699 : 146.6665 : 1"
   inkscape:persp3d-origin="223.8335 : 97.777669 : 1"
   id="perspective38" />
	
	
	
	
	
	
	
	
	
	
	
	
	
	
</defs><sodipodi:namedview
   inkscape:window-height="988"
   inkscape:window-width="1680"
   inkscape:pageshadow="2"
   inkscape:pageopacity="0.0"
   guidetolerance="10.0"
   gridtolerance="10.0"
   objecttolerance="10.0"
   borderopacity="1.0"
   bordercolor="#666666"
   pagecolor="#ffffff"
   id="base"
   showgrid="false"
   inkscape:zoom="24.870968"
   inkscape:cx="20"
   inkscape:cy="15.5"
   inkscape:window-x="-8"
   inkscape:window-y="-8"
   inkscape:current-layer="Layer_1"
   inkscape:window-maximized="1" />
<path
   sodipodi:nodetypes="cscccc"
   inkscape:connector-curvature="0"
   style="fill:none;stroke:#b3b3b3;stroke-width:0.1;stroke-linejoin:miter;stroke-miterlimit:4;stroke-dasharray:none"
   id="path11"
   d="M 19.538382,9.7274142 C 17.761331,10.849436 10.402999,18.210271 9.2066979,19.080308 8.0103976,19.950344 6.2703244,21.364153 6.2703244,21.364153 l 2.6101098,-1.1963 C 7.9991454,20.70838 7.2720494,21.60499 6.7105936,22.290717 7.2576692,22.657799 8.8864579,21.790764 8.8199961,21.771216" /><path
   sodipodi:nodetypes="cscsc"
   inkscape:connector-curvature="0"
   style="fill:none;stroke:#b3b3b3;stroke-width:0.1;stroke-linejoin:miter;stroke-miterlimit:4;stroke-dasharray:none"
   id="path13"
   d="m 36.403864,5.0395152 c 1.249686,-0.3901898 2.450767,-0.7750582 2.601366,-0.858692 0.326263,-0.1811859 0.398694,-0.5438829 0.398694,-0.5438829 0,0 -0.761172,-1.0150054 -2.791294,-1.0875447 -0.140027,-0.00501 -0.275056,-0.0069 -0.405102,-0.0061" /><path
   sodipodi:nodetypes="cscc"
   inkscape:connector-curvature="0"
   style="fill:none;stroke:#b3b3b3;stroke-width:0.1;stroke-linejoin:miter;stroke-miterlimit:4;stroke-dasharray:none"
   id="path15"
   d="m 34.549106,4.2407342 c 0.05103,-0.015723 0.165499,-0.054306 0.220008,-0.070866 0.712558,-0.2164886 1.693151,-0.4932403 2.169781,-0.5329281 0.870034,-0.072539 2.356275,1.09e-4 2.356275,1.09e-4" /><path
   sodipodi:nodetypes="cssccccccssccc"
   inkscape:connector-curvature="0"
   style="fill:none;stroke:#b3b3b3;stroke-width:0.1;stroke-linejoin:miter;stroke-miterlimit:4;stroke-dasharray:none"
   id="path17"
   d="m 8.9159962,22.159476 c 0,0 -4.7489851,4.567692 -5.4739431,5.111465 C 2.717095,27.814713 0.75940415,29.228522 0.61443417,29.772295 0.46946434,30.316068 1.2307464,30.09856 1.2307464,30.09856 l 0.2537245,-0.28994 0.1087544,0.326263 0.2537244,-0.07254 0,0.21751 0.5437729,0 c 0,0 0.3988031,0.108646 0.5075577,0.03622 0.1087546,-0.07243 0.4350182,-0.181185 0.5799881,0.03632 C 3.623238,30.5699 4.0220411,30.09856 4.0220411,30.09856 l 7.3352459,-6.508196 0.151035,-0.128442" /><path
   sodipodi:nodetypes="csssscsssc"
   inkscape:connector-curvature="0"
   style="fill:none;stroke:#b3b3b3;stroke-width:0.1;stroke-linejoin:miter;stroke-miterlimit:4;stroke-dasharray:none"
   id="path19"
   d="m 31.754673,14.692495 c 0,0 -5.546702,6.488952 -9.425433,7.467742 -3.878841,0.978792 -5.58259,0.07254 -5.908851,-0.03621 -0.326266,-0.108755 -4.567693,1.48624 -4.893957,1.341271 -0.326263,-0.144971 -2.0637327,1.438697 -4.0239182,1.631209 -0.2135995,0.02098 -0.3672521,-0.06837 -0.5054087,-0.130064 0.066145,-0.143359 0.2780852,-0.389522 0.4329787,-0.48614 0.078732,-0.04911 0.3224375,-0.23982 0.6109677,-0.472031 0.4386091,-0.352996 0.9808023,-0.801898 1.2045191,-0.995085 0.066921,-0.05779 0.3511021,-0.241961 0.3511021,-0.241961" /><path
   sodipodi:nodetypes="csssssssssccccssccccccc"
   inkscape:connector-curvature="0"
   style="fill:none;stroke:#b3b3b3;stroke-width:0.1;stroke-linejoin:miter;stroke-miterlimit:4;stroke-dasharray:none"
   id="path21"
   d="m 36.395449,2.6583671 c 0,0 -2.175092,-1.74007321 -3.588901,-1.6313176 -1.413811,0.1087546 -3.915166,0.7612809 -4.893958,1.9575824 -0.978791,1.1962993 -1.087545,1.8488278 -2.066336,2.5013547 -0.978791,0.6525286 -5.328973,3.4801464 -6.307766,4.2414276 -0.97879,0.7612828 5.111466,-2.9363727 6.090256,-2.7188635 0.978792,0.2175092 1.522565,0 1.848829,0.7612821 0.326263,0.7612815 -1.305056,3.5888992 -1.740073,4.1326732 -0.435017,0.543773 -1.522564,1.305056 -2.718864,1.848829 C 21.822335,14.295106 11.381898,18.8628 9.6418242,20.711626 7.901752,22.560453 9.2068059,21.472909 9.2068059,21.472909 L 8.8805421,22.23419 10.72937,21.472909 9.4243151,22.886717 c 0,0 6.3077649,-4.567692 10.7667019,-3.915164 4.458937,0.652527 10.875453,-5.76399 11.419228,-4.458937 0.05563,0.13352 0.13008,0.119918 0.196758,0.164399 0.57634,-0.139419 1.623008,-4.284704 1.684127,-4.23616 -0.05733,0.201355 -0.01551,0.520952 -0.01965,0.659846 0.334451,-0.08242 2.408338,-5.207766 3.032721,-6.0497327 C 36.141401,4.905237 34.437868,4.2896858 34.111605,4.6159505 L 34.62928,4.1722268 z" /><path
   inkscape:connector-curvature="0"
   style="fill:#999999;stroke:#b3b3b3;stroke-width:0.1;stroke-linejoin:miter;stroke-miterlimit:4;stroke-dasharray:none"
   id="path23"
   d="m 31.610245,3.0933865 c 0,0 0.108754,0.7612809 0.65253,1.0875447 0.543773,0.3262648 1.196299,-0.4350184 1.196299,-0.4350184 0,0 0.07178,-0.5442068 -0.544099,-0.8340384 -0.534421,-0.2514411 -1.30473,0.1815121 -1.30473,0.1815121 z"
   sodipodi:nodetypes="csccc" /><ellipse
   d="m 343.34101,30.674999 c 0,1.10457 -0.9702,2 -2.167,2 -1.1968,0 -2.167,-0.89543 -2.167,-2 0,-1.104569 0.9702,-2 2.167,-2 1.1968,0 2.167,0.895431 2.167,2 z"
   style="fill:#ffffff;stroke:#b3b3b3;stroke-width:0.91950166000000000;stroke-miterlimit:4;stroke-dasharray:none;stroke-linejoin:miter"
   transform="matrix(0.10875457,0,0,0.10875457,-4.388602,-0.13401486)"
   sodipodi:ry="2"
   sodipodi:rx="2.1670001"
   sodipodi:cy="30.674999"
   sodipodi:cx="341.17401"
   id="ellipse25"
   ry="2"
   rx="2.1670001"
   cy="30.674999"
   cx="341.17401" /><polygon
   style="fill:#b3b3b3;stroke:#b3b3b3;stroke-width:0.91950166000000000;stroke-miterlimit:4;stroke-dasharray:none;stroke-linejoin:miter"
   transform="matrix(0.10875457,0,0,0.10875457,-4.388602,-0.13401486)"
   id="polygon27"
   points="235.669,217.999 237.335,199.332 233.002,197.999 233.002,219.332 239.659,229.985 244.01,230.176 244.01,230.176 " /><path
   inkscape:connector-curvature="0"
   style="fill:#b3b3b3;stroke:#b3b3b3;stroke-width:0.1;stroke-linejoin:miter;stroke-miterlimit:4;stroke-dasharray:none"
   id="path31"
   d="m 24.32195,24.842234 1.161499,-0.03448 c 0.144968,0.144971 0.21751,0.942575 0.21751,0.942575 l -0.579989,0.579988 c 0,0 0.869276,-0.145839 0.869276,-0.580858 0,-0.435017 0.145732,-1.086674 -0.361829,-1.376722 -0.301247,-0.172269 -0.882977,0.165958 -1.306467,0.469493"
   sodipodi:nodetypes="ccccscc" /><path
   inkscape:connector-curvature="0"
   style="fill:#b3b3b3;stroke:#b3b3b3;stroke-width:0.1;stroke-linejoin:miter;stroke-miterlimit:4;stroke-dasharray:none"
   id="path29"
   d="m 22.801125,24.817111 c 0.407178,-0.276455 0.923328,-0.455354 1.196194,-0.299401 0.507556,0.290048 0.361826,0.941705 0.361826,1.376724 0,0.435017 -0.869276,0.580858 -0.869276,0.580858 l 0.579989,-0.579988 c 0,0 -0.03622,-0.878846 -0.181185,-1.023816 z"
   sodipodi:nodetypes="ccscccc" /><path
   sodipodi:nodetypes="ccccccc"
   inkscape:connector-curvature="0"
   id="path2997"
   d="m 22.826576,22.013715 -0.181792,1.759187 0.57054,0.816652 -0.335611,0.17899 -0.509009,-0.811056 0,-1.804583 z"
   style="fill:#b3b3b3;stroke:#b3b3b3;stroke-width:0.1;stroke-linecap:butt;stroke-linejoin:miter;stroke-miterlimit:4;stroke-opacity:1;stroke-dasharray:none" />
</svg>